<svg xmlns="http://www.w3.org/2000/svg" viewBox="0 0 33.63 39.95"><title>copy</title><path d="M29.27,2a2.36,2.36,0,0,1,2.36,2.36v24.2a2.36,2.36,0,0,1-2.36,2.36H11.5a2.36,2.36,0,0,1-2.36-2.36V4.36A2.36,2.36,0,0,1,11.5,2H29.27m0-2H11.5A4.36,4.36,0,0,0,7.14,4.36v24.2a4.36,4.36,0,0,0,4.36,4.36H29.27a4.36,4.36,0,0,0,4.36-4.36V4.36A4.36,4.36,0,0,0,29.27,0Z" fill="#111"/><path d="M5.87,5.1" fill="none" stroke="#111" stroke-miterlimit="10" stroke-width="2.85"/><path d="M1,10.63l0,24A4.36,4.36,0,0,0,5.39,39H23" fill="none" stroke="#111" stroke-linecap="round" stroke-miterlimit="10" stroke-width="2"/></svg>