<svg xmlns="http://www.w3.org/2000/svg" viewBox="0 0 40 40"><title>generate</title><path d="M35.87,2A2.14,2.14,0,0,1,38,4.13V35.87A2.14,2.14,0,0,1,35.87,38H4.13A2.14,2.14,0,0,1,2,35.87V4.13A2.14,2.14,0,0,1,4.13,2H35.87m0-2H4.13A4.13,4.13,0,0,0,0,4.13V35.87A4.13,4.13,0,0,0,4.13,40H35.87A4.13,4.13,0,0,0,40,35.87V4.13A4.13,4.13,0,0,0,35.87,0Z" fill="#111"/><circle cx="20" cy="20" r="3.4" fill="#111"/><circle cx="10.4" cy="10.4" r="3.4" fill="#111"/><circle cx="29.6" cy="10.4" r="3.4" fill="#111"/><circle cx="10.4" cy="29.6" r="3.4" fill="#111"/><circle cx="29.6" cy="29.6" r="3.4" fill="#111"/></svg>